<svg xmlns="http://www.w3.org/2000/svg"><symbol viewBox="0 0 172.74007 208.2022" id="src-1">
<path d="M21.0853 189.213C21.3851 188.293 22.687 188.293 22.9869 189.213L24.738 194.587C24.8721 194.999 25.2559 195.277 25.6888 195.277H31.3495C32.3189 195.277 32.7213 196.518 31.9363 197.087L27.3614 200.402C27.0099 200.657 26.8629 201.109 26.9973 201.521L28.7459 206.888C29.0459 207.809 27.9926 208.576 27.2084 208.008L22.6228 204.685C22.2728 204.432 21.7994 204.432 21.4494 204.685L16.8638 208.008C16.0796 208.576 15.0263 207.809 15.3263 206.888L17.0749 201.521C17.2093 201.109 17.0622 200.657 16.7108 200.402L12.1359 197.087C11.3509 196.518 11.7532 195.277 12.7226 195.277H18.3834C18.8163 195.277 19.2001 194.999 19.3342 194.587L21.0853 189.213Z" fill="#120D0E"/>
<path d="M56.1823 189.213C56.4822 188.293 57.7841 188.293 58.0839 189.213L59.835 194.587C59.9691 194.999 60.3529 195.277 60.7858 195.277H66.4466C67.416 195.277 67.8183 196.518 67.0333 197.087L62.4584 200.402C62.107 200.657 61.9599 201.109 62.0943 201.521L63.8429 206.888C64.1429 207.809 63.0897 208.576 62.3054 208.008L57.7199 204.685C57.3698 204.432 56.8965 204.432 56.5464 204.685L51.9609 208.008C51.1766 208.576 50.1233 207.809 50.4233 206.888L52.1719 201.521C52.3064 201.109 52.1593 200.657 51.8078 200.402L47.233 197.087C46.4479 196.518 46.8503 195.277 47.8197 195.277H53.4804C53.9134 195.277 54.2971 194.999 54.4312 194.587L56.1823 189.213Z" fill="#120D0E"/>
<path d="M91.2794 189.213C91.5792 188.293 92.8811 188.293 93.181 189.213L94.9321 194.587C95.0662 194.999 95.45 195.277 95.8829 195.277H101.544C102.513 195.277 102.915 196.518 102.13 197.087L97.5555 200.402C97.204 200.657 97.0569 201.109 97.1914 201.521L98.94 206.888C99.24 207.809 98.1867 208.576 97.4024 208.008L92.8169 204.685C92.4669 204.432 91.9935 204.432 91.6435 204.685L87.0579 208.008C86.2737 208.576 85.2204 207.809 85.5204 206.888L87.269 201.521C87.4034 201.109 87.2563 200.657 86.9049 200.402L82.33 197.087C81.545 196.518 81.9473 195.277 82.9167 195.277H88.5775C89.0104 195.277 89.3942 194.999 89.5283 194.587L91.2794 189.213Z" fill="#120D0E"/>
<path d="M126.377 189.213C126.676 188.293 127.978 188.293 128.278 189.213L130.029 194.587C130.163 194.999 130.547 195.277 130.98 195.277H136.641C137.61 195.277 138.013 196.518 137.228 197.087L132.653 200.402C132.301 200.657 132.154 201.109 132.289 201.521L134.037 206.888C134.337 207.809 133.284 208.576 132.5 208.008L127.914 204.685C127.564 204.432 127.091 204.432 126.741 204.685L122.155 208.008C121.371 208.576 120.318 207.809 120.618 206.888L122.366 201.521C122.501 201.109 122.354 200.657 122.002 200.402L117.427 197.087C116.642 196.518 117.044 195.277 118.014 195.277H123.675C124.108 195.277 124.491 194.999 124.625 194.587L126.377 189.213Z" fill="#120D0E"/>
<path d="M161.474 189.213C161.774 188.293 163.075 188.293 163.375 189.213L165.126 194.587C165.261 194.999 165.644 195.277 166.077 195.277H171.738C172.707 195.277 173.11 196.518 172.325 197.087L167.75 200.402C167.398 200.657 167.251 201.109 167.386 201.521L169.134 206.888C169.434 207.809 168.381 208.576 167.597 208.008L163.011 204.685C162.661 204.432 162.188 204.432 161.838 204.685L157.252 208.008C156.468 208.576 155.415 207.809 155.715 206.888L157.463 201.521C157.598 201.109 157.451 200.657 157.099 200.402L152.524 197.087C151.739 196.518 152.142 195.277 153.111 195.277H158.772C159.205 195.277 159.588 194.999 159.723 194.587L161.474 189.213Z" fill="#120D0E"/>
<path d="M120.694 92.1912L91.6934 100L62.6923 92.1912L56 19.6891L127.387 19.6891L120.694 92.1912Z" fill="#2062AF"/>
<path d="M91.6934 25.562V93.772L91.7589 93.7899L115.228 87.4703L120.645 25.562L91.6934 25.562Z" fill="#3C9CD7"/>
<path d="M75.2343 9.03729V4.72198L81.5304 4.72198V0L70.5123 0V13.3462L81.5304 13.3462V9.03729L75.2343 9.03729ZM92.8563 4.72198L97.258 4.72198V0L86.2389 0V4.72198C87.7132 6.19618 88.482 6.90178 90.6141 9.03388C89.3677 9.03388 86.2389 9.03835 86.2389 9.03814V13.3462L97.258 13.3462V9.03729L92.8563 4.72198ZM108.474 4.72198H112.875V0L101.856 0V4.72198C103.33 6.19618 104.099 6.90178 106.231 9.03388C104.986 9.03388 101.856 9.03835 101.856 9.03814V13.3462L112.876 13.3462V9.03729L108.474 4.72198Z" fill="black"/>
<path d="M91.6674 43.6903L70.9106 52.335L71.599 60.8938L91.6674 52.3133L113.015 43.1861L113.9 34.4307L91.6674 43.6903Z" fill="white"/>
<path d="M70.9105 52.3348L71.5989 60.8936L91.6673 52.3131V43.6902L70.9105 52.3348Z" fill="url(#paint0_linear)"/>
<path d="M113.9 34.4307L91.6675 43.6901V52.313L113.015 43.1859L113.9 34.4307Z" fill="url(#paint1_linear)"/>
<path d="M70.9424 52.3348L71.6309 60.8937L102.424 60.9918L101.735 72.4035L91.6022 75.2561L81.8618 72.7968L81.2716 65.7136H72.2211L73.4017 79.3879L91.7006 84.7984L109.9 79.4861L112.261 52.3348L70.9424 52.3348Z" fill="url(#paint2_linear)"/>
<path opacity="0.05" d="M91.6675 52.3348H70.9106L71.599 60.8937L91.6675 60.9577V52.3348ZM91.6675 75.2289L91.5691 75.2563L81.8301 72.797L81.2399 65.7138H72.1896L73.37 79.3881L91.6675 84.7986V75.2289Z" fill="black"/>
<path d="M69.0411 34.4307L113.9 34.4307L113.015 43.186L70.1232 43.186L69.0411 34.4307Z" fill="url(#paint3_linear)"/>
<path opacity="0.05" d="M91.6674 34.4307H69.0411L70.1232 43.186H91.6674V34.4307Z" fill="black"/>
<path d="M87.1549 128.461C87.0319 129.514 86.6422 130.327 85.986 130.901C85.3343 131.471 84.4661 131.756 83.3815 131.756C82.2057 131.756 81.2623 131.334 80.5514 130.491C79.845 129.648 79.4918 128.52 79.4918 127.107V126.15C79.4918 125.225 79.6559 124.412 79.984 123.71C80.3167 123.008 80.7861 122.47 81.3922 122.097C81.9983 121.718 82.7002 121.529 83.4977 121.529C84.555 121.529 85.4026 121.826 86.0406 122.418C86.6787 123.006 87.0501 123.822 87.1549 124.865H85.8356C85.7216 124.072 85.4733 123.498 85.0905 123.143C84.7122 122.787 84.1813 122.609 83.4977 122.609C82.6591 122.609 82.0006 122.919 81.5221 123.539C81.0481 124.159 80.8112 125.041 80.8112 126.185V127.148C80.8112 128.229 81.0367 129.088 81.4879 129.726C81.9391 130.364 82.5703 130.683 83.3815 130.683C84.1106 130.683 84.6689 130.519 85.0563 130.19C85.4482 129.858 85.708 129.281 85.8356 128.461H87.1549ZM91.8854 127.183C90.7597 126.859 89.9394 126.463 89.4244 125.993C88.914 125.519 88.6588 124.936 88.6588 124.243C88.6588 123.459 88.971 122.812 89.5953 122.302C90.2242 121.787 91.04 121.529 92.0426 121.529C92.7262 121.529 93.3346 121.661 93.8678 121.926C94.4056 122.19 94.8203 122.555 95.1119 123.02C95.4082 123.484 95.5563 123.993 95.5563 124.544H94.2369C94.2369 123.942 94.0455 123.471 93.6627 123.129C93.2799 122.783 92.7399 122.609 92.0426 122.609C91.3955 122.609 90.8896 122.753 90.525 123.04C90.165 123.323 89.985 123.717 89.985 124.223C89.985 124.628 90.1559 124.972 90.4977 125.255C90.844 125.533 91.4296 125.788 92.2545 126.021C93.0839 126.253 93.7311 126.51 94.1959 126.793C94.6653 127.071 95.0117 127.397 95.235 127.771C95.4628 128.144 95.5768 128.584 95.5768 129.09C95.5768 129.896 95.2623 130.544 94.6334 131.031C94.0045 131.514 93.1637 131.756 92.111 131.756C91.4274 131.756 90.7893 131.626 90.1969 131.366C89.6045 131.102 89.1464 130.742 88.8229 130.286C88.5039 129.83 88.3444 129.313 88.3444 128.734H89.6637C89.6637 129.336 89.8847 129.812 90.3268 130.163C90.7734 130.509 91.3681 130.683 92.111 130.683C92.8037 130.683 93.3346 130.541 93.7037 130.259C94.0729 129.976 94.2574 129.591 94.2574 129.104C94.2574 128.616 94.0865 128.24 93.7448 127.976C93.403 127.707 92.7832 127.442 91.8854 127.183ZM100.198 127.183C99.0722 126.859 98.2519 126.463 97.7369 125.993C97.2265 125.519 96.9713 124.936 96.9713 124.243C96.9713 123.459 97.2835 122.812 97.9078 122.302C98.5367 121.787 99.3525 121.529 100.355 121.529C101.039 121.529 101.647 121.661 102.18 121.926C102.718 122.19 103.133 122.555 103.424 123.02C103.721 123.484 103.869 123.993 103.869 124.544H102.549C102.549 123.942 102.358 123.471 101.975 123.129C101.592 122.783 101.052 122.609 100.355 122.609C99.708 122.609 99.2021 122.753 98.8375 123.04C98.4775 123.323 98.2975 123.717 98.2975 124.223C98.2975 124.628 98.4684 124.972 98.8102 125.255C99.1565 125.533 99.7421 125.788 100.567 126.021C101.396 126.253 102.044 126.51 102.508 126.793C102.978 127.071 103.324 127.397 103.547 127.771C103.775 128.144 103.889 128.584 103.889 129.09C103.889 129.896 103.575 130.544 102.946 131.031C102.317 131.514 101.476 131.756 100.423 131.756C99.7399 131.756 99.1018 131.626 98.5094 131.366C97.917 131.102 97.4589 130.742 97.1354 130.286C96.8164 129.83 96.6569 129.313 96.6569 128.734H97.9762C97.9762 129.336 98.1972 129.812 98.6393 130.163C99.0859 130.509 99.6806 130.683 100.423 130.683C101.116 130.683 101.647 130.541 102.016 130.259C102.385 129.976 102.57 129.591 102.57 129.104C102.57 128.616 102.399 128.24 102.057 127.976C101.715 127.707 101.096 127.442 100.198 127.183Z" fill="#3D3B3C"/>
<defs>
<linearGradient id="paint0_linear" x1="81.2889" y1="60.8938" x2="81.2889" y2="43.6904" gradientUnits="userSpaceOnUse">
<stop offset="0.387" stop-color="#D1D3D4" stop-opacity="0"/>
<stop offset="1" stop-color="#D1D3D4"/>
</linearGradient>
<linearGradient id="paint1_linear" x1="102.784" y1="52.3132" x2="102.784" y2="34.4309" gradientUnits="userSpaceOnUse">
<stop offset="0.387" stop-color="#D1D3D4" stop-opacity="0"/>
<stop offset="1" stop-color="#D1D3D4"/>
</linearGradient>
<linearGradient id="paint2_linear" x1="70.9424" y1="68.5668" x2="112.261" y2="68.5668" gradientUnits="userSpaceOnUse">
<stop stop-color="#E8E7E5"/>
<stop offset="1" stop-color="white"/>
</linearGradient>
<linearGradient id="paint3_linear" x1="69.0411" y1="38.8084" x2="113.9" y2="38.8084" gradientUnits="userSpaceOnUse">
<stop stop-color="#E8E7E5"/>
<stop offset="1" stop-color="white"/>
</linearGradient>
</defs>
</symbol><symbol viewBox="0 0 172.74007 208.2022" id="src-2">
<path d="M21.0853 189.213C21.3851 188.293 22.687 188.293 22.9869 189.213L24.738 194.587C24.8721 194.999 25.2559 195.277 25.6888 195.277H31.3495C32.3189 195.277 32.7213 196.518 31.9363 197.087L27.3614 200.402C27.0099 200.657 26.8629 201.109 26.9973 201.521L28.7459 206.888C29.0459 207.809 27.9926 208.576 27.2084 208.008L22.6228 204.685C22.2728 204.432 21.7994 204.432 21.4494 204.685L16.8638 208.008C16.0796 208.576 15.0263 207.809 15.3263 206.888L17.0749 201.521C17.2093 201.109 17.0622 200.657 16.7108 200.402L12.1359 197.087C11.3509 196.518 11.7532 195.277 12.7226 195.277H18.3834C18.8163 195.277 19.2001 194.999 19.3342 194.587L21.0853 189.213Z" fill="#120D0E"/>
<path d="M56.1823 189.213C56.4822 188.293 57.7841 188.293 58.0839 189.213L59.835 194.587C59.9691 194.999 60.3529 195.277 60.7858 195.277H66.4466C67.416 195.277 67.8183 196.518 67.0333 197.087L62.4584 200.402C62.107 200.657 61.9599 201.109 62.0943 201.521L63.8429 206.888C64.1429 207.809 63.0897 208.576 62.3054 208.008L57.7199 204.685C57.3698 204.432 56.8965 204.432 56.5464 204.685L51.9609 208.008C51.1766 208.576 50.1233 207.809 50.4233 206.888L52.1719 201.521C52.3064 201.109 52.1593 200.657 51.8078 200.402L47.233 197.087C46.4479 196.518 46.8503 195.277 47.8197 195.277H53.4804C53.9134 195.277 54.2971 194.999 54.4312 194.587L56.1823 189.213Z" fill="#120D0E"/>
<path d="M91.2794 189.213C91.5792 188.293 92.8811 188.293 93.181 189.213L94.9321 194.587C95.0662 194.999 95.45 195.277 95.8829 195.277H101.544C102.513 195.277 102.915 196.518 102.13 197.087L97.5555 200.402C97.204 200.657 97.0569 201.109 97.1914 201.521L98.94 206.888C99.24 207.809 98.1867 208.576 97.4024 208.008L92.8169 204.685C92.4669 204.432 91.9935 204.432 91.6435 204.685L87.0579 208.008C86.2737 208.576 85.2204 207.809 85.5204 206.888L87.269 201.521C87.4034 201.109 87.2563 200.657 86.9049 200.402L82.33 197.087C81.545 196.518 81.9473 195.277 82.9167 195.277H88.5775C89.0104 195.277 89.3942 194.999 89.5283 194.587L91.2794 189.213Z" fill="#120D0E"/>
<path d="M126.377 189.213C126.676 188.293 127.978 188.293 128.278 189.213L130.029 194.587C130.163 194.999 130.547 195.277 130.98 195.277H136.641C137.61 195.277 138.013 196.518 137.228 197.087L132.653 200.402C132.301 200.657 132.154 201.109 132.289 201.521L134.037 206.888C134.337 207.809 133.284 208.576 132.5 208.008L127.914 204.685C127.564 204.432 127.091 204.432 126.741 204.685L122.155 208.008C121.371 208.576 120.318 207.809 120.618 206.888L122.366 201.521C122.501 201.109 122.354 200.657 122.002 200.402L117.427 197.087C116.642 196.518 117.044 195.277 118.014 195.277H123.675C124.108 195.277 124.491 194.999 124.625 194.587L126.377 189.213Z" fill="#BEBEBE"/>
<path d="M161.474 189.213C161.774 188.293 163.075 188.293 163.375 189.213L165.126 194.587C165.261 194.999 165.644 195.277 166.077 195.277H171.738C172.707 195.277 173.11 196.518 172.325 197.087L167.75 200.402C167.398 200.657 167.251 201.109 167.386 201.521L169.134 206.888C169.434 207.809 168.381 208.576 167.597 208.008L163.011 204.685C162.661 204.432 162.188 204.432 161.838 204.685L157.252 208.008C156.468 208.576 155.415 207.809 155.715 206.888L157.463 201.521C157.598 201.109 157.451 200.657 157.099 200.402L152.524 197.087C151.739 196.518 152.142 195.277 153.111 195.277H158.772C159.205 195.277 159.588 194.999 159.723 194.587L161.474 189.213Z" fill="#BEBEBE"/>
<g clip-path="url(#clip0)">
<path d="M104.711 29.3249C102.088 29.3249 100.134 30.6042 100.134 33.6834C100.134 36.0032 101.421 37.614 104.57 37.614C107.238 37.614 109.051 36.0521 109.051 33.587C109.051 30.7937 107.429 29.3249 104.711 29.3249ZM99.4658 51.0665C98.8447 51.823 98.226 52.6275 98.226 53.5758C98.226 55.4692 100.657 56.039 103.996 56.039C106.762 56.039 110.53 55.8463 110.53 53.2923C110.53 51.7741 108.717 51.6805 106.427 51.5381L99.4658 51.0665ZM113.581 29.4678C114.438 30.5572 115.346 32.0735 115.346 34.2518C115.346 39.5088 111.197 42.587 105.189 42.587C103.662 42.587 102.279 42.398 101.421 42.1615L99.8469 44.6708L104.52 44.9548C112.771 45.4771 117.633 45.7145 117.633 52.0111C117.633 57.4589 112.818 60.5357 104.52 60.5357C95.8888 60.5357 92.5981 58.357 92.5981 54.6158C92.5981 52.4845 93.5521 51.35 95.2213 49.7844C93.6472 49.1237 93.1231 47.9403 93.1231 46.6605C93.1231 45.6177 93.6472 44.6712 94.5069 43.7704C95.3647 42.8719 96.3182 41.9711 97.4628 40.9292C95.1266 39.7923 93.3613 37.3295 93.3613 33.824C93.3613 28.3784 96.9861 24.6382 104.281 24.6382C106.332 24.6382 107.572 24.8254 108.669 25.1117H117.969V29.1359L113.581 29.4678ZM126.359 20.8612C123.64 20.8612 122.067 19.297 122.067 16.5963C122.067 13.8994 123.64 12.4297 126.359 12.4297C129.125 12.4297 130.699 13.8994 130.699 16.5963C130.699 19.297 129.125 20.8612 126.359 20.8612ZM120.206 49.3235V45.5837L122.639 45.2532C123.307 45.1577 123.402 45.0162 123.402 44.3044V30.3798C123.402 29.8603 123.259 29.527 122.781 29.3864L120.206 28.4855L120.73 24.6503H130.603V44.3044C130.603 45.0632 130.649 45.1577 131.366 45.2536L133.798 45.5842V49.3235H120.206ZM152.656 47.4873C150.605 48.4813 147.601 49.3812 144.882 49.3812C139.207 49.3812 137.062 47.1102 137.062 41.7555V29.3482C137.062 29.0642 137.062 28.8747 136.679 28.8747H133.342V24.6582C137.539 24.1834 139.207 22.0996 139.732 16.9371H144.263V23.6643C144.263 23.9948 144.263 24.1378 144.645 24.1378H151.368V28.8738H144.263V40.1927C144.263 42.9869 144.931 44.0753 147.505 44.0753C148.842 44.0753 150.223 43.7448 151.367 43.3184L152.656 47.4869" fill="#2F2707"/>
<path d="M81.9979 35.0586L60.1935 13.4046C59.8949 13.1079 59.5403 12.8726 59.1501 12.712C58.7599 12.5515 58.3417 12.4688 57.9193 12.4688C57.497 12.4688 57.0788 12.5515 56.6886 12.712C56.2983 12.8726 55.9438 13.1079 55.6452 13.4046L51.1175 17.9018L56.8611 23.6057C57.5363 23.3776 58.2622 23.3419 58.9567 23.5026C59.6512 23.6633 60.2865 24.014 60.7907 24.5149C61.2975 25.0189 61.6514 25.6544 61.8119 26.3487C61.9724 27.0431 61.9329 27.7682 61.6982 28.4413L67.2327 33.939C68.5719 33.4809 70.1174 33.7775 71.1866 34.8412C71.5421 35.1941 71.8241 35.613 72.0165 36.0741C72.2089 36.5352 72.3079 37.0295 72.3079 37.5286C72.3079 38.0278 72.2089 38.522 72.0165 38.9831C71.8241 39.4442 71.5421 39.8632 71.1866 40.216C70.5612 40.8377 69.7381 41.225 68.8576 41.3119C67.977 41.3987 67.0934 41.1798 66.357 40.6924C65.6207 40.205 65.0771 39.4792 64.819 38.6386C64.5608 37.798 64.6039 36.8945 64.941 36.0819L59.7791 30.9553L59.7786 44.4469C60.1528 44.6307 60.4946 44.8734 60.7907 45.1657C61.1461 45.5187 61.4281 45.9377 61.6205 46.3989C61.8128 46.8601 61.9119 47.3544 61.9119 47.8536C61.9119 48.3528 61.8128 48.8471 61.6205 49.3083C61.4281 49.7694 61.1461 50.1885 60.7907 50.5414C59.2954 52.0265 56.8719 52.0265 55.379 50.5414C54.9329 50.0988 54.6039 49.5535 54.4213 48.9541C54.2386 48.3547 54.2078 47.7198 54.3318 47.1058C54.4557 46.4918 54.7305 45.9177 55.1317 45.4346C55.5329 44.9514 56.0481 44.5743 56.6315 44.3366V30.7193C56.1622 30.5289 55.7362 30.2468 55.379 29.8897C54.2465 28.7663 53.9741 27.1159 54.5544 25.7346L48.8929 20.1108L33.9425 34.9581C33.6438 35.2548 33.4068 35.607 33.2451 35.9947C33.0835 36.3823 33.0002 36.7978 33.0002 37.2174C33.0002 37.637 33.0835 38.0525 33.2451 38.4401C33.4068 38.8278 33.6438 39.18 33.9425 39.4767L55.7469 61.1313C56.3501 61.7302 57.1681 62.0666 58.0211 62.0666C58.874 62.0666 59.692 61.7302 60.2952 61.1313L81.9979 39.5777C82.601 38.9783 82.9398 38.1656 82.9398 37.3182C82.9398 36.4708 82.601 35.658 81.9979 35.0586Z" fill="#DE4C36"/>
</g>
<path d="M91.2906 130.313C90.9534 130.797 90.4817 131.159 89.8756 131.4C89.274 131.637 88.5722 131.756 87.7701 131.756C86.9589 131.756 86.2389 131.567 85.61 131.188C84.9811 130.806 84.4934 130.263 84.1471 129.562C83.8053 128.86 83.6298 128.046 83.6207 127.121V126.253C83.6207 124.754 83.9694 123.591 84.6666 122.767C85.3684 121.942 86.3528 121.529 87.6198 121.529C88.6588 121.529 89.4951 121.796 90.1285 122.329C90.762 122.858 91.1494 123.61 91.2906 124.585H89.9781C89.7321 123.268 88.9482 122.609 87.6266 122.609C86.747 122.609 86.0794 122.919 85.6237 123.539C85.1725 124.154 84.9446 125.048 84.9401 126.219V127.032C84.9401 128.149 85.1953 129.037 85.7057 129.698C86.2161 130.354 86.9065 130.683 87.777 130.683C88.2692 130.683 88.6998 130.628 89.069 130.519C89.4381 130.409 89.7434 130.225 89.985 129.965V127.729H87.6813V126.663H91.2906V130.313ZM94.6608 131.619H93.3961V124.223H94.6608V131.619ZM93.2936 122.261C93.2936 122.056 93.3551 121.882 93.4781 121.741C93.6058 121.6 93.7926 121.529 94.0387 121.529C94.2848 121.529 94.4716 121.6 94.5992 121.741C94.7268 121.882 94.7906 122.056 94.7906 122.261C94.7906 122.466 94.7268 122.637 94.5992 122.773C94.4716 122.91 94.2848 122.979 94.0387 122.979C93.7926 122.979 93.6058 122.91 93.4781 122.773C93.3551 122.637 93.2936 122.466 93.2936 122.261ZM98.4069 122.432V124.223H99.7877V125.2H98.4069V129.787C98.4069 130.083 98.4684 130.307 98.5914 130.457C98.7145 130.603 98.9241 130.676 99.2203 130.676C99.3662 130.676 99.5667 130.648 99.8219 130.594V131.619C99.4892 131.71 99.1656 131.756 98.8512 131.756C98.2861 131.756 97.86 131.585 97.5729 131.243C97.2858 130.901 97.1422 130.416 97.1422 129.787V125.2H95.7955V124.223H97.1422V122.432H98.4069Z" fill="#3D3B3C"/>
<defs>
<clipPath id="clip0">
<rect width="120" height="50.2941" fill="white" transform="translate(33 12)"/>
</clipPath>
</defs>
</symbol><symbol viewBox="0 0 172.74007 210.2022" id="src-3">
<path d="M21.0853 191.213C21.3851 190.293 22.687 190.293 22.9869 191.213L24.738 196.587C24.8721 196.999 25.2559 197.277 25.6888 197.277H31.3495C32.3189 197.277 32.7213 198.518 31.9363 199.087L27.3614 202.402C27.0099 202.657 26.8629 203.109 26.9973 203.521L28.7459 208.888C29.0459 209.809 27.9926 210.576 27.2084 210.008L22.6228 206.685C22.2728 206.432 21.7994 206.432 21.4494 206.685L16.8638 210.008C16.0796 210.576 15.0263 209.809 15.3263 208.888L17.0749 203.521C17.2093 203.109 17.0622 202.657 16.7108 202.402L12.1359 199.087C11.3509 198.518 11.7532 197.277 12.7226 197.277H18.3834C18.8163 197.277 19.2001 196.999 19.3342 196.587L21.0853 191.213Z" fill="#120D0E"/>
<path d="M56.1823 191.213C56.4822 190.293 57.7841 190.293 58.0839 191.213L59.835 196.587C59.9691 196.999 60.3529 197.277 60.7858 197.277H66.4466C67.416 197.277 67.8183 198.518 67.0333 199.087L62.4584 202.402C62.107 202.657 61.9599 203.109 62.0943 203.521L63.8429 208.888C64.1429 209.809 63.0897 210.576 62.3054 210.008L57.7199 206.685C57.3698 206.432 56.8965 206.432 56.5464 206.685L51.9609 210.008C51.1766 210.576 50.1233 209.809 50.4233 208.888L52.1719 203.521C52.3064 203.109 52.1593 202.657 51.8078 202.402L47.233 199.087C46.4479 198.518 46.8503 197.277 47.8197 197.277H53.4804C53.9134 197.277 54.2971 196.999 54.4312 196.587L56.1823 191.213Z" fill="#120D0E"/>
<path d="M91.2794 191.213C91.5792 190.293 92.8811 190.293 93.181 191.213L94.9321 196.587C95.0662 196.999 95.45 197.277 95.8829 197.277H101.544C102.513 197.277 102.915 198.518 102.13 199.087L97.5555 202.402C97.204 202.657 97.0569 203.109 97.1914 203.521L98.94 208.888C99.24 209.809 98.1867 210.576 97.4024 210.008L92.8169 206.685C92.4669 206.432 91.9935 206.432 91.6435 206.685L87.0579 210.008C86.2737 210.576 85.2204 209.809 85.5204 208.888L87.269 203.521C87.4034 203.109 87.2563 202.657 86.9049 202.402L82.33 199.087C81.545 198.518 81.9473 197.277 82.9167 197.277H88.5775C89.0104 197.277 89.3942 196.999 89.5283 196.587L91.2794 191.213Z" fill="#120D0E"/>
<path d="M126.377 191.213C126.676 190.293 127.978 190.293 128.278 191.213L130.029 196.587C130.163 196.999 130.547 197.277 130.98 197.277H136.641C137.61 197.277 138.013 198.518 137.228 199.087L132.653 202.402C132.301 202.657 132.154 203.109 132.289 203.521L134.037 208.888C134.337 209.809 133.284 210.576 132.5 210.008L127.914 206.685C127.564 206.432 127.091 206.432 126.741 206.685L122.155 210.008C121.371 210.576 120.318 209.809 120.618 208.888L122.366 203.521C122.501 203.109 122.354 202.657 122.002 202.402L117.427 199.087C116.642 198.518 117.044 197.277 118.014 197.277H123.675C124.108 197.277 124.491 196.999 124.625 196.587L126.377 191.213Z" fill="#120D0E"/>
<path d="M161.474 191.213C161.774 190.293 163.075 190.293 163.375 191.213L165.126 196.587C165.261 196.999 165.644 197.277 166.077 197.277H171.738C172.707 197.277 173.11 198.518 172.325 199.087L167.75 202.402C167.398 202.657 167.251 203.109 167.386 203.521L169.134 208.888C169.434 209.809 168.381 210.576 167.597 210.008L163.011 206.685C162.661 206.432 162.188 206.432 161.838 206.685L157.252 210.008C156.468 210.576 155.415 209.809 155.715 208.888L157.463 203.521C157.598 203.109 157.451 202.657 157.099 202.402L152.524 199.087C151.739 198.518 152.142 197.277 153.111 197.277H158.772C159.205 197.277 159.588 196.999 159.723 196.587L161.474 191.213Z" fill="#BEBEBE"/>
<g clip-path="url(#clip0)">
<path d="M93 0C65.3745 0 43 22.3729 43 49.9964C43 73.4926 59.1234 92.9934 80.8766 98.4909C80.6255 97.8654 80.5021 96.9888 80.5021 96.1166V87.615H74.2511C70.8766 87.615 67.7489 86.1173 66.3745 83.3643C64.7489 80.3645 64.4979 75.7393 60.3745 72.8629C59.1234 71.863 60.1234 70.863 61.4979 70.9864C64.1234 71.7353 66.2468 73.4884 68.2468 76.1095C70.2468 78.7348 71.1234 79.3603 74.8723 79.3603C76.6213 79.3603 79.3702 79.2369 81.8723 78.8582C83.2468 75.3563 85.6213 72.2332 88.4979 70.7354C71.7489 68.7355 63.7489 60.4851 63.7489 49.2348C63.7489 44.3585 65.8723 39.7333 69.3745 35.7336C68.2511 31.8573 66.7489 23.8579 69.8766 20.7347C77.3787 20.7347 81.8766 25.6109 83 26.8577C86.7489 25.6067 90.8766 24.8578 95.1234 24.8578C99.4979 24.8578 103.498 25.6067 107.247 26.8577C108.37 25.6067 112.872 20.7347 120.37 20.7347C123.37 23.7345 121.996 31.8573 120.745 35.7336C124.247 39.6099 126.247 44.3585 126.247 49.2348C126.247 60.4851 118.37 68.7355 101.749 70.4843C106.374 72.8586 109.626 79.6071 109.626 84.6067V95.9932C109.626 96.3676 109.502 96.742 109.502 97.1165C129 90.368 143 71.8715 143 49.9964C143 22.3729 120.626 0 93 0Z" fill="black"/>
</g>
<path d="M80.1422 132.313C79.805 132.797 79.3333 133.159 78.7272 133.4C78.1256 133.637 77.4238 133.756 76.6217 133.756C75.8105 133.756 75.0905 133.567 74.4615 133.188C73.8326 132.806 73.345 132.263 72.9987 131.562C72.6569 130.86 72.4814 130.046 72.4723 129.121V128.253C72.4723 126.754 72.8209 125.591 73.5182 124.767C74.22 123.942 75.2044 123.529 76.4713 123.529C77.5104 123.529 78.3466 123.796 78.9801 124.329C79.6136 124.858 80.0009 125.61 80.1422 126.585H78.8297C78.5836 125.268 77.7998 124.609 76.4781 124.609C75.5986 124.609 74.9309 124.919 74.4752 125.539C74.024 126.154 73.7962 127.048 73.7916 128.219V129.032C73.7916 130.149 74.0468 131.037 74.5573 131.698C75.0677 132.354 75.7581 132.683 76.6285 132.683C77.1207 132.683 77.5514 132.628 77.9205 132.519C78.2897 132.409 78.595 132.225 78.8365 131.965V129.729H76.5328V128.663H80.1422V132.313ZM83.5123 133.619H82.2477V126.223H83.5123V133.619ZM82.1451 124.261C82.1451 124.056 82.2067 123.882 82.3297 123.741C82.4573 123.6 82.6442 123.529 82.8903 123.529C83.1364 123.529 83.3232 123.6 83.4508 123.741C83.5784 123.882 83.6422 124.056 83.6422 124.261C83.6422 124.466 83.5784 124.637 83.4508 124.773C83.3232 124.91 83.1364 124.979 82.8903 124.979C82.6442 124.979 82.4573 124.91 82.3297 124.773C82.2067 124.637 82.1451 124.466 82.1451 124.261ZM87.2584 124.432V126.223H88.6393V127.2H87.2584V131.787C87.2584 132.083 87.3199 132.307 87.443 132.457C87.566 132.603 87.7757 132.676 88.0719 132.676C88.2177 132.676 88.4183 132.648 88.6735 132.594V133.619C88.3408 133.71 88.0172 133.756 87.7028 133.756C87.1377 133.756 86.7115 133.585 86.4244 133.243C86.1373 132.901 85.9938 132.416 85.9938 131.787V127.2H84.6471V126.223H85.9938V124.432H87.2584ZM91.3873 127.118C91.9479 126.43 92.677 126.086 93.5748 126.086C95.138 126.086 95.9264 126.968 95.9401 128.731V133.619H94.6754V128.725C94.6709 128.191 94.5478 127.797 94.3063 127.542C94.0693 127.287 93.6979 127.159 93.192 127.159C92.7819 127.159 92.4218 127.269 92.1119 127.487C91.802 127.706 91.5605 127.993 91.3873 128.349V133.619H90.1227V123.119H91.3873V127.118ZM102.4 132.888C101.908 133.466 101.186 133.756 100.233 133.756C99.4446 133.756 98.8431 133.528 98.4283 133.072C98.0182 132.612 97.8108 131.933 97.8063 131.035V126.223H99.0709V131.001C99.0709 132.122 99.5267 132.683 100.438 132.683C101.404 132.683 102.047 132.323 102.366 131.603V126.223H103.63V133.619H102.427L102.4 132.888ZM111.82 130.003C111.82 131.133 111.56 132.042 111.041 132.73C110.521 133.414 109.824 133.756 108.949 133.756C108.015 133.756 107.292 133.425 106.782 132.765L106.72 133.619H105.558V123.119H106.823V127.036C107.333 126.403 108.037 126.086 108.935 126.086C109.833 126.086 110.537 126.425 111.047 127.104C111.562 127.784 111.82 128.713 111.82 129.894V130.003ZM110.555 129.859C110.555 128.998 110.389 128.333 110.056 127.863C109.724 127.394 109.245 127.159 108.621 127.159C107.787 127.159 107.187 127.547 106.823 128.321V131.521C107.21 132.295 107.814 132.683 108.634 132.683C109.241 132.683 109.712 132.448 110.049 131.979C110.387 131.509 110.555 130.803 110.555 129.859Z" fill="#3D3B3C"/>
<defs>
<clipPath id="clip0">
<rect width="100" height="98.4951" fill="white" transform="translate(43)"/>
</clipPath>
</defs>
</symbol><symbol viewBox="0 0 172.74007 208.2022" id="src-4">
<g clip-path="url(#clip0)">
<path d="M63.0241 91.9682L56.5767 19.6524L127.423 19.6524L120.969 91.9569L91.9565 100L63.0241 91.9682Z" fill="#E44D26"/>
<path d="M92 93.8521L115.443 87.3527L120.959 25.5652H92V93.8521Z" fill="#F16529"/>
<path d="M91.9998 52.3861H80.2635L79.453 43.3038H91.9998V34.4345H91.9692H69.76L69.9723 36.814L72.1522 61.2552H91.9998V52.3861Z" fill="#EBEBEB"/>
<path d="M92 75.4205L91.9611 75.4309L82.0834 72.7637L81.4519 65.6901H76.6521H72.5486L73.7912 79.616L91.9591 84.6596L92 84.6483V75.4205Z" fill="#EBEBEB"/>
<path d="M63.1682 0L67.6754 0V4.45312L71.7985 4.45313V0L76.3059 0V13.4852H71.7987V8.96953H67.6756V13.4852H63.1684V0L63.1682 0Z" fill="#120D0E"/>
<path d="M82.2331 4.47187H78.2651V0L90.7104 0V4.47187H86.7407V13.4852H82.2333V4.47187H82.2331Z" fill="#120D0E"/>
<path d="M92.6858 0L97.3856 0L100.277 4.73828L103.165 0L107.866 0V13.4852H103.378V6.80117L100.277 11.5959H100.199L97.096 6.80117V13.4852H92.6858V0Z" fill="#120D0E"/>
<path d="M110.109 0L114.618 0V9.02773H120.956V13.4852H110.109V0Z" fill="#120D0E"/>
<path d="M91.9695 52.3861V61.2552H102.891L101.861 72.758L91.9695 75.4279V84.6552L110.152 79.616L110.285 78.1175L112.369 54.7677L112.586 52.3861H110.196H91.9695Z" fill="white"/>
<path d="M91.9695 34.4345V39.9431V43.2822V43.3038H113.364H113.393L113.571 41.3103L113.975 36.814L114.187 34.4345H91.9695Z" fill="white"/>
</g>
<path d="M81.4126 131.619H80.0933V127.019H75.0757V131.619H73.7632V121.666H75.0757V125.945H80.0933V121.666H81.4126V131.619ZM90.4155 122.746H87.2163V131.619H85.9106V122.746H82.7183V121.666H90.4155V122.746ZM93.5874 121.666L96.8413 129.787L100.095 121.666H101.797V131.619H100.485V127.743L100.608 123.56L97.3403 131.619H96.3354L93.0747 123.58L93.2046 127.743V131.619H91.8921V121.666H93.5874ZM105.434 130.546H110.151V131.619H104.115V121.666H105.434V130.546Z" fill="#3D3B3C"/>
<path d="M21.0853 189.213C21.3851 188.293 22.687 188.293 22.9869 189.213L24.738 194.587C24.8721 194.999 25.2559 195.277 25.6888 195.277H31.3495C32.3189 195.277 32.7213 196.518 31.9363 197.087L27.3614 200.402C27.0099 200.657 26.8629 201.109 26.9973 201.521L28.7459 206.888C29.0459 207.809 27.9926 208.576 27.2084 208.008L22.6228 204.685C22.2728 204.432 21.7994 204.432 21.4494 204.685L16.8638 208.008C16.0796 208.576 15.0263 207.809 15.3263 206.888L17.0749 201.521C17.2093 201.109 17.0622 200.657 16.7108 200.402L12.1359 197.087C11.3509 196.518 11.7532 195.277 12.7226 195.277H18.3834C18.8163 195.277 19.2001 194.999 19.3342 194.587L21.0853 189.213Z" fill="#120D0E"/>
<path d="M56.1822 189.213C56.4821 188.293 57.784 188.293 58.0838 189.213L59.8349 194.587C59.969 194.999 60.3528 195.277 60.7857 195.277H66.4465C67.4159 195.277 67.8182 196.518 67.0332 197.087L62.4583 200.402C62.1069 200.657 61.9598 201.109 62.0942 201.521L63.8428 206.888C64.1428 207.809 63.0895 208.576 62.3053 208.008L57.7197 204.685C57.3697 204.432 56.8963 204.432 56.5463 204.685L51.9607 208.008C51.1765 208.576 50.1232 207.809 50.4232 206.888L52.1718 201.521C52.3062 201.109 52.1592 200.657 51.8077 200.402L47.2328 197.087C46.4478 196.518 46.8502 195.277 47.8196 195.277H53.4803C53.9132 195.277 54.297 194.999 54.4311 194.587L56.1822 189.213Z" fill="#120D0E"/>
<path d="M91.2794 189.213C91.5792 188.293 92.8811 188.293 93.181 189.213L94.9321 194.587C95.0662 194.999 95.45 195.277 95.8829 195.277H101.544C102.513 195.277 102.915 196.518 102.13 197.087L97.5555 200.402C97.204 200.657 97.0569 201.109 97.1914 201.521L98.94 206.888C99.24 207.809 98.1867 208.576 97.4024 208.008L92.8169 204.685C92.4669 204.432 91.9935 204.432 91.6435 204.685L87.0579 208.008C86.2737 208.576 85.2204 207.809 85.5204 206.888L87.269 201.521C87.4034 201.109 87.2563 200.657 86.9049 200.402L82.33 197.087C81.545 196.518 81.9473 195.277 82.9167 195.277H88.5775C89.0104 195.277 89.3942 194.999 89.5283 194.587L91.2794 189.213Z" fill="#120D0E"/>
<path d="M126.377 189.213C126.676 188.293 127.978 188.293 128.278 189.213L130.029 194.587C130.163 194.999 130.547 195.277 130.98 195.277H136.641C137.61 195.277 138.013 196.518 137.228 197.087L132.653 200.402C132.301 200.657 132.154 201.109 132.289 201.521L134.037 206.888C134.337 207.809 133.284 208.576 132.5 208.008L127.914 204.685C127.564 204.432 127.091 204.432 126.741 204.685L122.155 208.008C121.371 208.576 120.318 207.809 120.618 206.888L122.366 201.521C122.501 201.109 122.354 200.657 122.002 200.402L117.427 197.087C116.642 196.518 117.044 195.277 118.014 195.277H123.675C124.108 195.277 124.491 194.999 124.625 194.587L126.377 189.213Z" fill="#120D0E"/>
<path d="M161.474 189.213C161.774 188.293 163.075 188.293 163.375 189.213L165.126 194.587C165.261 194.999 165.644 195.277 166.077 195.277H171.738C172.707 195.277 173.11 196.518 172.325 197.087L167.75 200.402C167.398 200.657 167.251 201.109 167.386 201.521L169.134 206.888C169.434 207.809 168.381 208.576 167.597 208.008L163.011 204.685C162.661 204.432 162.188 204.432 161.838 204.685L157.252 208.008C156.468 208.576 155.415 207.809 155.715 206.888L157.463 201.521C157.598 201.109 157.451 200.657 157.099 200.402L152.524 197.087C151.739 196.518 152.142 195.277 153.111 195.277H158.772C159.205 195.277 159.588 194.999 159.723 194.587L161.474 189.213Z" fill="#120D0E"/>
<defs>
<clipPath id="clip0">
<rect width="100" height="100" fill="white" transform="translate(42)"/>
</clipPath>
</defs>
</symbol><symbol viewBox="0 0 172.74007 210.2022" id="src-5">
<path d="M21.0853 191.213C21.3851 190.293 22.687 190.293 22.9869 191.213L24.738 196.587C24.8721 196.999 25.2559 197.277 25.6888 197.277H31.3495C32.3189 197.277 32.7213 198.518 31.9363 199.087L27.3614 202.402C27.0099 202.657 26.8629 203.109 26.9973 203.521L28.7459 208.888C29.0459 209.809 27.9926 210.576 27.2084 210.008L22.6228 206.685C22.2728 206.432 21.7994 206.432 21.4494 206.685L16.8638 210.008C16.0796 210.576 15.0263 209.809 15.3263 208.888L17.0749 203.521C17.2093 203.109 17.0622 202.657 16.7108 202.402L12.1359 199.087C11.3509 198.518 11.7532 197.277 12.7226 197.277H18.3834C18.8163 197.277 19.2001 196.999 19.3342 196.587L21.0853 191.213Z" fill="#120D0E"/>
<path d="M56.1823 191.213C56.4822 190.293 57.7841 190.293 58.0839 191.213L59.835 196.587C59.9691 196.999 60.3529 197.277 60.7858 197.277H66.4466C67.416 197.277 67.8183 198.518 67.0333 199.087L62.4584 202.402C62.107 202.657 61.9599 203.109 62.0943 203.521L63.8429 208.888C64.1429 209.809 63.0897 210.576 62.3054 210.008L57.7199 206.685C57.3698 206.432 56.8965 206.432 56.5464 206.685L51.9609 210.008C51.1766 210.576 50.1233 209.809 50.4233 208.888L52.1719 203.521C52.3064 203.109 52.1593 202.657 51.8078 202.402L47.233 199.087C46.4479 198.518 46.8503 197.277 47.8197 197.277H53.4804C53.9134 197.277 54.2971 196.999 54.4312 196.587L56.1823 191.213Z" fill="#120D0E"/>
<path d="M91.2794 191.213C91.5792 190.293 92.8811 190.293 93.181 191.213L94.9321 196.587C95.0662 196.999 95.45 197.277 95.8829 197.277H101.544C102.513 197.277 102.915 198.518 102.13 199.087L97.5555 202.402C97.204 202.657 97.0569 203.109 97.1914 203.521L98.94 208.888C99.24 209.809 98.1867 210.576 97.4024 210.008L92.8169 206.685C92.4669 206.432 91.9935 206.432 91.6435 206.685L87.0579 210.008C86.2737 210.576 85.2204 209.809 85.5204 208.888L87.269 203.521C87.4034 203.109 87.2563 202.657 86.9049 202.402L82.33 199.087C81.545 198.518 81.9473 197.277 82.9167 197.277H88.5775C89.0104 197.277 89.3942 196.999 89.5283 196.587L91.2794 191.213Z" fill="#120D0E"/>
<path d="M126.377 191.213C126.676 190.293 127.978 190.293 128.278 191.213L130.029 196.587C130.163 196.999 130.547 197.277 130.98 197.277H136.641C137.61 197.277 138.013 198.518 137.228 199.087L132.653 202.402C132.301 202.657 132.154 203.109 132.289 203.521L134.037 208.888C134.337 209.809 133.284 210.576 132.5 210.008L127.914 206.685C127.564 206.432 127.091 206.432 126.741 206.685L122.155 210.008C121.371 210.576 120.318 209.809 120.618 208.888L122.366 203.521C122.501 203.109 122.354 202.657 122.002 202.402L117.427 199.087C116.642 198.518 117.044 197.277 118.014 197.277H123.675C124.108 197.277 124.491 196.999 124.625 196.587L126.377 191.213Z" fill="#BEBEBE"/>
<path d="M161.474 191.213C161.774 190.293 163.075 190.293 163.375 191.213L165.126 196.587C165.261 196.999 165.644 197.277 166.077 197.277H171.738C172.707 197.277 173.11 198.518 172.325 199.087L167.75 202.402C167.398 202.657 167.251 203.109 167.386 203.521L169.134 208.888C169.434 209.809 168.381 210.576 167.597 210.008L163.011 206.685C162.661 206.432 162.188 206.432 161.838 206.685L157.252 210.008C156.468 210.576 155.415 209.809 155.715 208.888L157.463 203.521C157.598 203.109 157.451 202.657 157.099 202.402L152.524 199.087C151.739 198.518 152.142 197.277 153.111 197.277H158.772C159.205 197.277 159.588 196.999 159.723 196.587L161.474 191.213Z" fill="#BEBEBE"/>
<g opacity="0.78">
<path d="M54 0H132V78H54V0Z" fill="#F7DF1E"/>
<path d="M74.5091 65.1824L80.4779 61.57C81.6296 63.6118 82.6772 65.3393 85.1899 65.3393C87.5985 65.3393 89.1173 64.3972 89.1173 60.7325V35.8096H96.4472V60.8361C96.4472 68.428 91.9969 71.8837 85.504 71.8837C79.6403 71.8837 76.2367 68.8469 74.5088 65.1818L74.5091 65.1824ZM100.429 64.3969L106.397 60.9415C107.968 63.5072 110.01 65.392 113.622 65.392C116.66 65.392 118.596 63.8735 118.596 61.7791C118.596 59.266 116.607 58.3757 113.256 56.9102L111.424 56.1241C106.135 53.8733 102.627 51.0458 102.627 45.077C102.627 39.5792 106.816 35.3904 113.361 35.3904C118.021 35.3904 121.372 37.0138 123.78 41.2547L118.073 44.9201C116.816 42.6688 115.455 41.7788 113.361 41.7788C111.214 41.7788 109.853 43.1401 109.853 44.9201C109.853 47.119 111.214 48.0096 114.355 49.371L116.188 50.1561C122.418 52.8267 125.926 55.5491 125.926 61.6746C125.926 68.2723 120.743 71.8846 113.779 71.8846C106.973 71.8846 102.575 68.6385 100.428 64.3972" fill="black"/>
</g>
<path d="M64.0016 123.666H65.3209V130.714C65.3209 131.666 65.0338 132.411 64.4596 132.949C63.8899 133.487 63.1289 133.756 62.1764 133.756C61.1875 133.756 60.4173 133.503 59.8658 132.997C59.3144 132.491 59.0387 131.783 59.0387 130.871H60.3512C60.3512 131.441 60.5061 131.885 60.816 132.204C61.1305 132.523 61.5839 132.683 62.1764 132.683C62.7187 132.683 63.1562 132.512 63.4889 132.17C63.8261 131.828 63.997 131.35 64.0016 130.734V123.666ZM71.9244 133.619C71.8515 133.473 71.7923 133.214 71.7467 132.84C71.1588 133.451 70.457 133.756 69.6412 133.756C68.9121 133.756 68.3128 133.551 67.8434 133.141C67.3785 132.726 67.1461 132.202 67.1461 131.568C67.1461 130.798 67.4378 130.201 68.0211 129.777C68.609 129.349 69.4339 129.135 70.4957 129.135H71.7262V128.554C71.7262 128.112 71.594 127.761 71.3297 127.501C71.0654 127.237 70.6757 127.104 70.1608 127.104C69.7096 127.104 69.3313 127.218 69.026 127.446C68.7207 127.674 68.568 127.95 68.568 128.273H67.2965C67.2965 127.904 67.4264 127.549 67.6862 127.207C67.9505 126.861 68.3059 126.587 68.7526 126.387C69.2037 126.186 69.6982 126.086 70.236 126.086C71.0882 126.086 71.7558 126.3 72.2389 126.729C72.722 127.152 72.9726 127.738 72.9908 128.485V131.89C72.9908 132.569 73.0774 133.109 73.2506 133.51V133.619H71.9244ZM69.8258 132.655C70.2223 132.655 70.5983 132.553 70.9537 132.348C71.3092 132.143 71.5667 131.876 71.7262 131.548V130.03H70.735C69.1855 130.03 68.4108 130.484 68.4108 131.391C68.4108 131.787 68.5429 132.097 68.8073 132.32C69.0716 132.544 69.4111 132.655 69.8258 132.655ZM77.3043 131.903L79.1364 126.223H80.4283L77.776 133.619H76.8121L74.1324 126.223H75.4244L77.3043 131.903ZM86.1022 133.619C86.0293 133.473 85.97 133.214 85.9244 132.84C85.3365 133.451 84.6347 133.756 83.819 133.756C83.0898 133.756 82.4905 133.551 82.0211 133.141C81.5563 132.726 81.3239 132.202 81.3239 131.568C81.3239 130.798 81.6155 130.201 82.1989 129.777C82.7867 129.349 83.6116 129.135 84.6735 129.135H85.9039V128.554C85.9039 128.112 85.7718 127.761 85.5074 127.501C85.2431 127.237 84.8535 127.104 84.3385 127.104C83.8873 127.104 83.5091 127.218 83.2037 127.446C82.8984 127.674 82.7457 127.95 82.7457 128.273H81.4742C81.4742 127.904 81.6041 127.549 81.8639 127.207C82.1282 126.861 82.4837 126.587 82.9303 126.387C83.3815 126.186 83.8759 126.086 84.4137 126.086C85.2659 126.086 85.9336 126.3 86.4166 126.729C86.8997 127.152 87.1503 127.738 87.1686 128.485V131.89C87.1686 132.569 87.2552 133.109 87.4283 133.51V133.619H86.1022ZM84.0035 132.655C84.4 132.655 84.776 132.553 85.1315 132.348C85.4869 132.143 85.7444 131.876 85.9039 131.548V130.03H84.9127C83.3632 130.03 82.5885 130.484 82.5885 131.391C82.5885 131.787 82.7207 132.097 82.985 132.32C83.2493 132.544 83.5888 132.655 84.0035 132.655ZM92.2819 129.183C91.1562 128.859 90.3359 128.463 89.8209 127.993C89.3105 127.519 89.0553 126.936 89.0553 126.243C89.0553 125.459 89.3675 124.812 89.9918 124.302C90.6207 123.787 91.4365 123.529 92.4391 123.529C93.1227 123.529 93.7311 123.661 94.2643 123.926C94.802 124.19 95.2168 124.555 95.5084 125.02C95.8046 125.484 95.9528 125.993 95.9528 126.544H94.6334C94.6334 125.942 94.442 125.471 94.0592 125.129C93.6764 124.783 93.1364 124.609 92.4391 124.609C91.792 124.609 91.2861 124.753 90.9215 125.04C90.5615 125.323 90.3815 125.717 90.3815 126.223C90.3815 126.628 90.5524 126.972 90.8942 127.255C91.2405 127.533 91.8261 127.788 92.651 128.021C93.4804 128.253 94.1276 128.51 94.5924 128.793C95.0618 129.071 95.4082 129.397 95.6315 129.771C95.8593 130.144 95.9733 130.584 95.9733 131.09C95.9733 131.896 95.6588 132.544 95.0299 133.031C94.401 133.514 93.5602 133.756 92.5074 133.756C91.8239 133.756 91.1858 133.626 90.5934 133.366C90.0009 133.102 89.5429 132.742 89.2194 132.286C88.9003 131.83 88.7408 131.313 88.7408 130.734H90.0602C90.0602 131.336 90.2812 131.812 90.7233 132.163C91.1699 132.509 91.7646 132.683 92.5074 132.683C93.2002 132.683 93.7311 132.541 94.1002 132.259C94.4694 131.976 94.6539 131.591 94.6539 131.104C94.6539 130.616 94.483 130.24 94.1412 129.976C93.7994 129.707 93.1796 129.442 92.2819 129.183ZM100.43 132.724C100.881 132.724 101.276 132.587 101.613 132.313C101.95 132.04 102.137 131.698 102.173 131.288H103.37C103.347 131.712 103.201 132.115 102.932 132.498C102.663 132.881 102.303 133.186 101.852 133.414C101.406 133.642 100.932 133.756 100.43 133.756C99.4231 133.756 98.6211 133.421 98.024 132.751C97.4316 132.076 97.1354 131.156 97.1354 129.989V129.777C97.1354 129.057 97.2675 128.417 97.5319 127.856C97.7962 127.296 98.1744 126.861 98.6666 126.551C99.1634 126.241 99.749 126.086 100.423 126.086C101.253 126.086 101.941 126.334 102.488 126.831C103.039 127.328 103.333 127.973 103.37 128.766H102.173C102.137 128.287 101.955 127.895 101.627 127.59C101.303 127.28 100.902 127.125 100.423 127.125C99.7809 127.125 99.2819 127.357 98.9264 127.822C98.5755 128.283 98.4 128.95 98.4 129.825V130.064C98.4 130.917 98.5755 131.573 98.9264 132.033C99.2773 132.493 99.7786 132.724 100.43 132.724ZM108.367 127.357C108.175 127.326 107.968 127.31 107.745 127.31C106.915 127.31 106.352 127.663 106.056 128.369V133.619H104.792V126.223H106.022L106.043 127.077C106.457 126.416 107.045 126.086 107.806 126.086C108.052 126.086 108.239 126.118 108.367 126.182V127.357ZM110.91 133.619H109.645V126.223H110.91V133.619ZM109.543 124.261C109.543 124.056 109.604 123.882 109.727 123.741C109.855 123.6 110.042 123.529 110.288 123.529C110.534 123.529 110.721 123.6 110.848 123.741C110.976 123.882 111.04 124.056 111.04 124.261C111.04 124.466 110.976 124.637 110.848 124.773C110.721 124.91 110.534 124.979 110.288 124.979C110.042 124.979 109.855 124.91 109.727 124.773C109.604 124.637 109.543 124.466 109.543 124.261ZM119.188 130.003C119.188 131.129 118.931 132.035 118.416 132.724C117.901 133.412 117.203 133.756 116.324 133.756C115.426 133.756 114.72 133.471 114.205 132.901V136.463H112.94V126.223H114.095L114.157 127.043C114.672 126.405 115.387 126.086 116.303 126.086C117.192 126.086 117.894 126.421 118.409 127.091C118.928 127.761 119.188 128.693 119.188 129.887V130.003ZM117.923 129.859C117.923 129.025 117.746 128.367 117.39 127.884C117.035 127.401 116.547 127.159 115.927 127.159C115.162 127.159 114.588 127.499 114.205 128.178V131.712C114.583 132.386 115.162 132.724 115.941 132.724C116.547 132.724 117.028 132.484 117.383 132.006C117.743 131.523 117.923 130.807 117.923 129.859ZM122.517 124.432V126.223H123.898V127.2H122.517V131.787C122.517 132.083 122.579 132.307 122.702 132.457C122.825 132.603 123.034 132.676 123.331 132.676C123.477 132.676 123.677 132.648 123.932 132.594V133.619C123.6 133.71 123.276 133.756 122.962 133.756C122.396 133.756 121.97 133.585 121.683 133.243C121.396 132.901 121.253 132.416 121.253 131.787V127.2H119.906V126.223H121.253V124.432H122.517Z" fill="#3D3B3C"/>
</symbol><symbol viewBox="0 0 172.74007 208.2022" id="src-6">
<path d="M21.0853 189.213C21.3851 188.293 22.687 188.293 22.9869 189.213L24.738 194.587C24.8721 194.999 25.2559 195.277 25.6888 195.277H31.3495C32.3189 195.277 32.7213 196.518 31.9363 197.087L27.3614 200.402C27.0099 200.657 26.8629 201.109 26.9973 201.521L28.7459 206.888C29.0459 207.809 27.9926 208.576 27.2084 208.008L22.6228 204.685C22.2728 204.432 21.7994 204.432 21.4494 204.685L16.8638 208.008C16.0796 208.576 15.0263 207.809 15.3263 206.888L17.0749 201.521C17.2093 201.109 17.0622 200.657 16.7108 200.402L12.1359 197.087C11.3509 196.518 11.7532 195.277 12.7226 195.277H18.3834C18.8163 195.277 19.2001 194.999 19.3342 194.587L21.0853 189.213Z" fill="#120D0E"/>
<path d="M56.1823 189.213C56.4822 188.293 57.7841 188.293 58.0839 189.213L59.835 194.587C59.9691 194.999 60.3529 195.277 60.7858 195.277H66.4466C67.416 195.277 67.8183 196.518 67.0333 197.087L62.4584 200.402C62.107 200.657 61.9599 201.109 62.0943 201.521L63.8429 206.888C64.1429 207.809 63.0897 208.576 62.3054 208.008L57.7199 204.685C57.3698 204.432 56.8965 204.432 56.5464 204.685L51.9609 208.008C51.1766 208.576 50.1233 207.809 50.4233 206.888L52.1719 201.521C52.3064 201.109 52.1593 200.657 51.8078 200.402L47.233 197.087C46.4479 196.518 46.8503 195.277 47.8197 195.277H53.4804C53.9134 195.277 54.2971 194.999 54.4312 194.587L56.1823 189.213Z" fill="#120D0E"/>
<path d="M91.2794 189.213C91.5792 188.293 92.8811 188.293 93.181 189.213L94.9321 194.587C95.0662 194.999 95.45 195.277 95.8829 195.277H101.544C102.513 195.277 102.915 196.518 102.13 197.087L97.5555 200.402C97.204 200.657 97.0569 201.109 97.1914 201.521L98.94 206.888C99.24 207.809 98.1867 208.576 97.4024 208.008L92.8169 204.685C92.4669 204.432 91.9935 204.432 91.6435 204.685L87.0579 208.008C86.2737 208.576 85.2204 207.809 85.5204 206.888L87.269 201.521C87.4034 201.109 87.2563 200.657 86.9049 200.402L82.33 197.087C81.545 196.518 81.9473 195.277 82.9167 195.277H88.5775C89.0104 195.277 89.3942 194.999 89.5283 194.587L91.2794 189.213Z" fill="#120D0E"/>
<path d="M126.377 189.213C126.676 188.293 127.978 188.293 128.278 189.213L130.029 194.587C130.163 194.999 130.547 195.277 130.98 195.277H136.641C137.61 195.277 138.013 196.518 137.228 197.087L132.653 200.402C132.301 200.657 132.154 201.109 132.289 201.521L134.037 206.888C134.337 207.809 133.284 208.576 132.5 208.008L127.914 204.685C127.564 204.432 127.091 204.432 126.741 204.685L122.155 208.008C121.371 208.576 120.318 207.809 120.618 206.888L122.366 201.521C122.501 201.109 122.354 200.657 122.002 200.402L117.427 197.087C116.642 196.518 117.044 195.277 118.014 195.277H123.675C124.108 195.277 124.491 194.999 124.625 194.587L126.377 189.213Z" fill="#120D0E"/>
<path d="M161.474 189.213C161.774 188.293 163.075 188.293 163.375 189.213L165.126 194.587C165.261 194.999 165.644 195.277 166.077 195.277H171.738C172.707 195.277 173.11 196.518 172.325 197.087L167.75 200.402C167.398 200.657 167.251 201.109 167.386 201.521L169.134 206.888C169.434 207.809 168.381 208.576 167.597 208.008L163.011 204.685C162.661 204.432 162.188 204.432 161.838 204.685L157.252 208.008C156.468 208.576 155.415 207.809 155.715 206.888L157.463 201.521C157.598 201.109 157.451 200.657 157.099 200.402L152.524 197.087C151.739 196.518 152.142 195.277 153.111 195.277H158.772C159.205 195.277 159.588 194.999 159.723 194.587L161.474 189.213Z" fill="#BEBEBE"/>
<g clip-path="url(#clip0)">
<path d="M129.055 43.0859C125.558 43.1057 122.531 43.9453 119.992 45.1955C119.055 43.34 118.117 41.7187 117.961 40.508C117.785 39.1017 117.57 38.2422 117.785 36.5627C118 34.8828 118.976 32.5 118.976 32.3047C118.957 32.1289 118.761 31.2695 116.75 31.25C114.738 31.2305 113 31.6406 112.805 32.168C112.609 32.6953 112.219 33.9062 111.965 35.1562C111.613 36.9922 107.941 43.4961 105.851 46.9141C105.168 45.5859 104.582 44.4141 104.465 43.4764C104.289 42.0703 104.074 41.2107 104.289 39.5312C104.504 37.8514 105.48 35.4687 105.48 35.2734C105.461 35.0976 105.266 34.2383 103.254 34.2187C101.242 34.1992 99.504 34.6094 99.3087 35.1367C99.1134 35.6641 98.8985 36.9141 98.4688 38.125C98.0585 39.3359 93.1757 50.1953 91.9061 53.0273C91.2616 54.4726 90.6954 55.625 90.285 56.4062C89.8749 57.1875 90.2655 56.4648 90.2265 56.543C89.8749 57.207 89.6796 57.5781 89.6796 57.5781V57.5978C89.4061 58.0861 89.1132 58.5547 88.9763 58.5547C88.8786 58.5547 88.6833 57.2461 89.0153 55.4494C89.738 51.6797 91.4958 45.801 91.4765 45.5861C91.4765 45.4885 91.8083 44.4531 90.3434 43.926C88.9177 43.3986 88.41 44.2775 88.2927 44.2775C88.1755 44.2775 88.0778 44.59 88.0778 44.59C88.0778 44.59 89.6598 37.9691 85.0505 37.9691C82.1598 37.9691 78.1755 41.1137 76.2028 43.9848C74.9528 44.6683 72.2966 46.1135 69.4841 47.6566C68.4098 48.2426 67.2966 48.8676 66.2419 49.434L66.0272 49.1992C60.4413 43.2422 50.1093 39.0234 50.5389 31.0156C50.6952 28.1055 51.7108 20.4297 70.3829 11.1328C85.6759 3.51563 97.922 5.60547 100.051 10.2539C103.078 16.8945 93.5077 29.2383 77.6095 31.0156C71.5548 31.6992 68.371 29.3555 67.5704 28.4766C66.7306 27.5586 66.6134 27.5195 66.3009 27.6953C65.7931 27.9687 66.1056 28.7891 66.3009 29.2773C66.7696 30.5078 68.7227 32.6953 72.0431 33.7891C74.953 34.7461 82.0626 35.2734 90.6563 31.9531C100.285 28.2227 107.805 17.8711 105.598 9.21875C103.352 0.41016 88.7423 -2.48046 74.9337 2.42188C66.7108 5.35156 57.8046 9.92188 51.3983 15.918C43.7811 23.0273 42.5702 29.2383 43.078 31.8164C44.8555 41.0156 57.5311 47.0117 62.6093 51.4453C62.3554 51.5818 62.121 51.7185 61.9061 51.8359C59.3671 53.0857 49.6991 58.1445 47.2772 63.4959C44.5429 69.5506 47.7069 73.9062 49.8163 74.4922C56.3397 76.3086 63.0194 73.0469 66.6327 67.6758C70.2263 62.3047 69.7968 55.332 68.1366 52.1484L68.0778 52.0312L70.07 50.8594C71.3593 50.0976 72.6288 49.3945 73.7419 48.7889C73.1171 50.4881 72.6677 52.4998 72.4335 55.4295C72.16 58.8672 73.5663 63.3201 75.4218 65.0779C76.2421 65.8394 77.2186 65.8592 77.8241 65.8592C79.9725 65.8592 80.9491 64.0816 82.0233 61.9529C83.3515 59.3553 84.5233 56.3474 84.5233 56.3474C84.5233 56.3474 83.0585 64.492 87.0624 64.492C88.5272 64.492 89.9921 62.5974 90.6561 61.6209V61.6404C90.6561 61.6404 90.6952 61.5818 90.7733 61.4451C90.8553 61.3239 90.9334 61.2002 91.0077 61.0742V61.0351C91.5936 60.0195 92.9022 57.6953 94.8554 53.8476C97.3747 48.8867 99.7968 42.6758 99.7968 42.6758C99.7968 42.6758 100.031 44.1992 100.754 46.6992C101.183 48.1838 102.121 49.8047 102.843 51.3867C102.258 52.207 101.906 52.676 101.906 52.676L101.925 52.6955C101.457 53.3205 100.929 53.9848 100.383 54.6486C98.3905 57.0314 96.0077 59.7465 95.6952 60.5277C95.3241 61.4455 95.4022 62.1291 96.1249 62.6762C96.6522 63.0668 97.5897 63.1447 98.5858 63.0668C100.383 62.9494 101.633 62.5004 102.258 62.2267C103.234 61.8752 104.348 61.3478 105.422 60.5666C107.375 59.1215 108.566 57.0707 108.449 54.3363C108.391 52.8324 107.902 51.348 107.297 49.9418C107.473 49.6879 107.649 49.4338 107.824 49.1605C110.91 44.6486 113.293 39.6879 113.293 39.6879C113.293 39.6879 113.527 41.2113 114.25 43.7113C114.621 44.9808 115.363 46.3678 116.027 47.7349C113.137 50.0982 111.32 52.8326 110.695 54.6295C109.543 57.9498 110.441 59.4537 112.141 59.8053C112.902 59.9615 113.996 59.61 114.816 59.2584C115.832 58.9264 117.062 58.3597 118.195 57.5201C120.148 56.0748 122.023 54.0631 121.926 51.3482C121.867 50.0982 121.535 48.8678 121.086 47.6959C123.547 46.6803 126.73 46.0943 130.773 46.5826C139.465 47.5982 141.183 53.0279 140.852 55.2935C140.52 57.5594 138.703 58.8092 138.098 59.1998C137.492 59.5709 137.297 59.7078 137.355 59.981C137.433 60.3914 137.707 60.3717 138.234 60.2937C138.957 60.1764 142.805 58.4383 142.961 54.2588C143.195 48.8869 138.098 43.0275 129.055 43.0859ZM62.0233 65.6836C59.1522 68.8281 55.1093 70.0195 53.3905 69.0039C51.535 67.9297 52.2575 63.3008 55.7929 59.9609C57.9413 57.9297 60.7343 56.0547 62.5702 54.9023C62.9804 54.6484 63.6054 54.2775 64.3475 53.8281C64.4647 53.7502 64.5429 53.7109 64.5429 53.7109C64.6796 53.6328 64.8358 53.5351 64.9921 53.4375C66.3007 58.2031 65.0507 62.3828 62.0233 65.6836ZM83.0194 51.4062C82.0233 53.8476 79.914 60.1172 78.6444 59.7656C77.5505 59.4726 76.8866 54.7266 78.4294 50.0391C79.2106 47.6756 80.8708 44.8633 81.8474 43.7693C83.4296 42.0115 85.1481 41.4256 85.578 42.1482C86.0858 43.0859 83.6444 49.8828 83.0194 51.4062ZM100.344 59.6875C99.914 59.9025 99.5233 60.0586 99.3475 59.9416C99.2108 59.8635 99.5231 59.5705 99.5231 59.5705C99.5231 59.5705 101.691 57.2463 102.55 56.1721C103.039 55.5473 103.625 54.8246 104.25 54.0041V54.2385C104.25 57.0508 101.555 58.9258 100.344 59.6875ZM113.703 56.6406C113.39 56.4062 113.43 55.6836 114.484 53.418C114.894 52.5195 115.832 51.0156 117.453 49.5898C117.648 50.1758 117.766 50.742 117.746 51.2695C117.726 54.7851 115.226 56.0937 113.703 56.6406Z" fill="#CF649A"/>
</g>
<path d="M79.1031 127.183C77.9775 126.859 77.1572 126.463 76.6422 125.993C76.1318 125.519 75.8766 124.936 75.8766 124.243C75.8766 123.459 76.1888 122.812 76.8131 122.302C77.442 121.787 78.2578 121.529 79.2604 121.529C79.944 121.529 80.5524 121.661 81.0856 121.926C81.6233 122.19 82.038 122.555 82.3297 123.02C82.6259 123.484 82.774 123.993 82.774 124.544H81.4547C81.4547 123.942 81.2633 123.471 80.8805 123.129C80.4977 122.783 79.9576 122.609 79.2604 122.609C78.6132 122.609 78.1074 122.753 77.7428 123.04C77.3828 123.323 77.2028 123.717 77.2028 124.223C77.2028 124.628 77.3737 124.972 77.7155 125.255C78.0618 125.533 78.6474 125.788 79.4723 126.021C80.3017 126.253 80.9489 126.51 81.4137 126.793C81.8831 127.071 82.2295 127.397 82.4528 127.771C82.6806 128.144 82.7946 128.584 82.7946 129.09C82.7946 129.896 82.4801 130.544 81.8512 131.031C81.2223 131.514 80.3815 131.756 79.3287 131.756C78.6451 131.756 78.0071 131.626 77.4147 131.366C76.8222 131.102 76.3642 130.742 76.0406 130.286C75.7216 129.83 75.5621 129.313 75.5621 128.734H76.8815C76.8815 129.336 77.1025 129.812 77.5446 130.163C77.9912 130.509 78.5859 130.683 79.3287 130.683C80.0214 130.683 80.5524 130.541 80.9215 130.259C81.2906 129.976 81.4752 129.591 81.4752 129.104C81.4752 128.616 81.3043 128.24 80.9625 127.976C80.6207 127.707 80.0009 127.442 79.1031 127.183ZM89.9791 129.021H85.8092L84.8727 131.619H83.5192L87.3199 121.666H88.4684L92.276 131.619H90.9293L89.9791 129.021ZM86.2057 127.941H89.5895L87.8942 123.286L86.2057 127.941ZM96.5485 127.183C95.4228 126.859 94.6025 126.463 94.0875 125.993C93.5771 125.519 93.3219 124.936 93.3219 124.243C93.3219 123.459 93.6341 122.812 94.2584 122.302C94.8873 121.787 95.7031 121.529 96.7057 121.529C97.3893 121.529 97.9977 121.661 98.5309 121.926C99.0686 122.19 99.4834 122.555 99.775 123.02C100.071 123.484 100.219 123.993 100.219 124.544H98.9C98.9 123.942 98.7086 123.471 98.3258 123.129C97.943 122.783 97.403 122.609 96.7057 122.609C96.0586 122.609 95.5527 122.753 95.1881 123.04C94.8281 123.323 94.6481 123.717 94.6481 124.223C94.6481 124.628 94.819 124.972 95.1608 125.255C95.5071 125.533 96.0927 125.788 96.9176 126.021C97.747 126.253 98.3942 126.51 98.859 126.793C99.3284 127.071 99.6748 127.397 99.8981 127.771C100.126 128.144 100.24 128.584 100.24 129.09C100.24 129.896 99.9254 130.544 99.2965 131.031C98.6676 131.514 97.8268 131.756 96.774 131.756C96.0905 131.756 95.4524 131.626 94.86 131.366C94.2675 131.102 93.8095 130.742 93.486 130.286C93.167 129.83 93.0074 129.313 93.0074 128.734H94.3268C94.3268 129.336 94.5478 129.812 94.9899 130.163C95.4365 130.509 96.0312 130.683 96.774 130.683C97.4668 130.683 97.9977 130.541 98.3668 130.259C98.736 129.976 98.9205 129.591 98.9205 129.104C98.9205 128.616 98.7496 128.24 98.4078 127.976C98.066 127.707 97.4462 127.442 96.5485 127.183ZM104.861 127.183C103.735 126.859 102.915 126.463 102.4 125.993C101.89 125.519 101.634 124.936 101.634 124.243C101.634 123.459 101.947 122.812 102.571 122.302C103.2 121.787 104.016 121.529 105.018 121.529C105.702 121.529 106.31 121.661 106.843 121.926C107.381 122.19 107.796 122.555 108.088 123.02C108.384 123.484 108.532 123.993 108.532 124.544H107.213C107.213 123.942 107.021 123.471 106.638 123.129C106.255 122.783 105.715 122.609 105.018 122.609C104.371 122.609 103.865 122.753 103.501 123.04C103.141 123.323 102.961 123.717 102.961 124.223C102.961 124.628 103.131 124.972 103.473 125.255C103.82 125.533 104.405 125.788 105.23 126.021C106.06 126.253 106.707 126.51 107.172 126.793C107.641 127.071 107.987 127.397 108.211 127.771C108.438 128.144 108.552 128.584 108.552 129.09C108.552 129.896 108.238 130.544 107.609 131.031C106.98 131.514 106.139 131.756 105.087 131.756C104.403 131.756 103.765 131.626 103.172 131.366C102.58 131.102 102.122 130.742 101.798 130.286C101.479 129.83 101.32 129.313 101.32 128.734H102.639C102.639 129.336 102.86 129.812 103.302 130.163C103.749 130.509 104.344 130.683 105.087 130.683C105.779 130.683 106.31 130.541 106.679 130.259C107.048 129.976 107.233 129.591 107.233 129.104C107.233 128.616 107.062 128.24 106.72 127.976C106.379 127.707 105.759 127.442 104.861 127.183Z" fill="#3D3B3C"/>
<defs>
<clipPath id="clip0">
<rect width="100" height="75" fill="white" transform="translate(43)"/>
</clipPath>
</defs>
</symbol><symbol viewBox="0 30 20" id="src-7">
<path d="M3.76 0.906616L16 13.1199L28.24 0.906616L32 4.66662L16 20.6666L0 4.66662L3.76 0.906616Z" fill="#120D0E"/>
</symbol></svg>